<svg id="Layer_1" enable-background="new 0 0 128 128" height="512" viewBox="0 0 128 128" width="512" xmlns="http://www.w3.org/2000/svg"><path d="m66.2 118.2c-1 0-1.7-.8-1.7-1.8 0-.7.5-1.4 1.2-1.7 2.8-1 4.5-2.1 4.6-3.3.2-1.2-.9-4.1-9.7-10.1-4.6-3.2-6.7-6.2-6.4-9.3.4-4.6 6-7.7 12-10.3 4.4-1.9 7-4.4 7.2-6.9.2-2.4-1.9-5-6-7.5-.8-.5-1.1-1.6-.5-2.4.5-.8 1.5-1 2.3-.6 6.7 4 7.9 8 7.7 10.7-.3 3.9-3.5 7.4-9.3 9.9-4.1 1.8-9.7 4.5-9.9 7.4-.2 1.7 1.5 3.8 4.9 6.1 8.4 5.7 11.7 9.8 11.2 13.5-.4 2.6-2.6 4.6-7 6.1-.3.2-.4.2-.6.2z" fill="#46bf88"/><path d="m61.8 118.2c-.2 0-.4 0-.6-.1-4.3-1.5-6.6-3.5-7-6.1-.5-3.7 2.8-7.8 11.2-13.5 3.3-2.3 5-4.4 4.9-6.1-.3-2.9-5.8-5.6-9.9-7.4-5.7-2.5-9-6-9.3-9.9-.2-2.6 1-6.7 7.7-10.7.8-.5 1.9-.2 2.4.7.5.8.2 1.8-.6 2.3-4.1 2.5-6.2 5-6 7.5s2.8 5 7.2 6.9c6 2.6 11.6 5.6 12 10.3.3 3.1-1.8 6.1-6.4 9.3-8.8 6.1-9.9 9-9.7 10.1s1.8 2.3 4.6 3.3c.9.3 1.4 1.3 1.1 2.2-.2.8-.8 1.2-1.6 1.2z" fill="#46bf88"/><path d="m67.2 70.8s15.8 2.4 21.6-6.8c0 0 8.3 0 9.8-6.2 0 0 7.7-1.3 8.3-9.2 0 0 14.5-3.2 14.5-21-6 8.8-26.9 6.3-39.2 6.2-5 0-8.3 5.8-6.2 12.9s-9.6 4.5-9.6 4.5" fill="#51dc9c"/><path d="m60.8 70.8s-15.8 2.4-21.6-6.8c0 0-8.3 0-9.8-6.2 0 0-7.7-1.3-8.3-9.2 0 0-14.5-3.2-14.5-21 6 8.8 26.9 6.3 39.2 6.2 5 0 8.3 5.8 6.2 12.9s9.6 4.5 9.6 4.5" fill="#51dc9c"/><path d="m68.2 24.2-2 97.3h-4.4l-2-97.3" fill="#d7e4ef"/><circle cx="64" cy="18" fill="#51dc9c" r="11.5"/></svg>